<svg xmlns="http://www.w3.org/2000/svg" viewBox="0 0 510.87 488.61"><defs><style>.a{fill:#fff;}</style></defs><path class="a" d="M43.37,365c1.35-2.78,2.26-4.59,3.84-7.24,5.66-9.53,14.77-12.55,25.19-13.46,45.77-4,91.52-8.2,137.29-12.16,4-.35,6-2,7.55-5.61,18.24-43,36.69-86,54.95-129,5-11.69,13.28-18.7,26.15-18.63,12.66.07,20.84,7.07,25.72,18.54,18.16,42.7,36.53,85.31,54.55,128.07,2,4.69,4.45,6.29,9.38,6.72q70.38,6.13,140.73,12.77c11.8,1.11,19.68,7.85,23.15,19s.38,20.81-8.21,28.4q-44.6,39.39-89.44,78.51c-6.24,5.47-12.42,11-18.75,16.38-2.12,1.8-2.75,3.39-2.08,6.33q15.92,69.29,31.49,138.64c2.86,12.63-.62,23.59-10.05,30.07-10.42,7.16-21,6.66-31.72.24-40.24-24.15-80.56-48.17-120.76-72.39-3.17-1.9-5.37-1.78-8.46.07-40.22,24.19-80.64,48-120.75,72.4-18.2,11-37.32,1.3-41.86-14.7a30.27,30.27,0,0,1-.1-15.24C141.6,587,152,541.3,162.53,495.62c1-4.31.13-6.8-3.18-9.68-35.06-30.51-69.9-61.27-105-91.77a39.79,39.79,0,0,1-11.27-17.09C42.38,373.1,41.83,369.3,43.37,365Z" transform="translate(-42.38 -178.97)"/></svg>